<svg width="1200" height="400" viewBox="0 0 1200 400" fill="none" xmlns="http://www.w3.org/2000/svg">
<path d="M314.675 288.36C314.675 288.36 314.675 270.564 314.675 266.965H313.39C310.476 275.192 305.678 281.362 298.993 285.475C292.309 289.588 284.34 291.645 275.085 291.645C261.031 291.645 250.062 288.046 242.178 280.847C234.466 273.649 230.609 263.88 230.609 251.54C230.609 239.029 235.151 229.431 244.235 222.747C253.49 216.063 267.801 212.721 287.168 212.721H313.39V199.609C313.39 190.183 310.819 182.985 305.678 178.014C300.536 173.044 292.652 170.559 282.026 170.559C273.971 170.559 267.201 172.359 261.716 175.958C256.403 179.557 251.947 184.356 248.348 190.354L236.008 178.786C239.607 171.587 245.349 165.503 253.233 160.533C261.117 155.391 271.057 152.82 283.054 152.82C299.165 152.82 311.676 156.762 320.588 164.646C329.501 172.53 333.957 183.499 333.957 197.553V270.564V288.36H314.675ZM278.427 274.163C283.568 274.163 288.282 273.563 292.566 272.364C296.851 271.164 300.536 269.45 303.621 267.222C306.706 264.994 309.105 262.423 310.819 259.51C312.533 256.596 313.39 253.425 313.39 249.998V228.146H286.139C274.313 228.146 265.658 229.859 260.174 233.287C254.861 236.715 252.204 241.685 252.204 248.198V253.597C252.204 260.109 254.518 265.165 259.146 268.765C263.944 272.364 270.371 274.163 278.427 274.163Z" fill="#254A6A"/>
<path d="M378.525 109.203H358.039V288.358H378.525V109.203Z" fill="#254A6A"/>
<path d="M378.525 109.203H358.039V288.358H378.525V109.203Z" fill="#254A6A"/>
<path d="M424.502 109.203H404.016V116.032H424.502V109.203Z" fill="#F03B3B"/>
<path d="M424.502 122.861H404.016V129.689H424.502V122.861Z" fill="#F03B3B"/>
<path d="M424.502 288.356H404.016V281.527H424.502V288.356Z" fill="#254A6A"/>
<path d="M424.502 274.698H404.016V267.87H424.502V274.698Z" fill="#254A6A"/>
<path d="M424.502 261.041H404.016V254.212H424.502V261.041Z" fill="#254A6A"/>
<path d="M424.502 247.383H404.016V240.554H424.502V247.383Z" fill="#254A6A"/>
<path d="M424.502 233.726H404.016V226.897H424.502V233.726Z" fill="#254A6A"/>
<path d="M424.502 220.068H404.016V213.239H424.502V220.068Z" fill="#254A6A"/>
<path d="M424.502 206.411H404.016V199.582H424.502V206.411Z" fill="#254A6A"/>
<path d="M424.502 192.753H404.016V185.924H424.502V192.753Z" fill="#254A6A"/>
<path d="M424.502 179.096H404.016V172.267H424.502V179.096Z" fill="#254A6A"/>
<path d="M424.502 165.438H404.016V158.609H424.502V165.438Z" fill="#254A6A"/>
<path fill-rule="evenodd" clip-rule="evenodd" d="M470.543 109.203H449.977V288.359H470.543V266.764H471.572C479.455 283.217 492.395 291.444 510.391 291.444C518.618 291.444 526.073 289.816 532.757 286.559C539.441 283.303 545.097 278.675 549.725 272.677C554.524 266.678 558.123 259.394 560.522 250.825C563.093 242.255 564.378 232.658 564.378 222.032C564.378 211.405 563.093 201.808 560.522 193.238C558.123 184.669 554.524 177.385 549.725 171.386C545.097 165.388 539.441 160.76 532.757 157.504C526.073 154.247 518.618 152.619 510.391 152.619C501.136 152.619 493.166 154.676 486.482 158.789C479.97 162.731 474.999 168.901 471.572 177.299H470.543V109.203ZM491.367 271.134C490.31 270.826 489.288 270.484 488.299 270.108C485.439 269.02 482.862 267.648 480.569 265.993C477.484 263.593 474.999 260.765 473.114 257.509C471.4 254.081 470.543 250.225 470.543 245.94V196.58C470.543 192.981 471.4 189.639 473.114 186.554C474.999 183.298 477.484 180.556 480.569 178.327C483.654 176.099 487.254 174.386 491.367 173.186C495.652 171.815 500.108 171.129 504.735 171.129C509.433 171.129 513.727 171.728 517.617 172.925C523.379 174.699 528.254 177.785 532.244 182.184C532.257 182.198 532.27 182.212 532.283 182.227C534.981 185.142 537.133 188.437 538.738 192.11C541.805 198.732 544.279 208.251 544.279 222.032C544.279 235.562 541.88 245.026 538.887 251.694C537.27 255.542 535.072 259.004 532.295 262.079C532.278 262.098 532.261 262.118 532.244 262.137C525.761 269.516 516.391 272.934 504.736 272.934C500.109 272.934 495.653 272.334 491.368 271.135L491.367 271.134Z" fill="#254A6A"/>
<path fill-rule="evenodd" clip-rule="evenodd" d="M1075.66 109.203H1096.22V288.359H1075.66V266.764H1074.63C1066.74 283.217 1053.8 291.444 1035.81 291.444C1027.58 291.444 1020.13 289.816 1013.44 286.559C1006.76 283.303 1001.1 278.675 996.474 272.677C991.675 266.678 988.076 259.394 985.677 250.825C983.106 242.255 981.82 232.658 981.82 222.032C981.82 211.405 983.106 201.808 985.677 193.238C988.076 184.669 991.675 177.385 996.474 171.386C1001.1 165.388 1006.76 160.76 1013.44 157.504C1020.13 154.247 1027.58 152.619 1035.81 152.619C1045.06 152.619 1053.03 154.676 1059.72 158.789C1066.23 162.731 1071.2 168.901 1074.63 177.299H1075.66V109.203ZM1054.83 271.134C1055.89 270.826 1056.91 270.484 1057.9 270.108C1060.76 269.02 1063.34 267.648 1065.63 265.993C1068.71 263.593 1071.2 260.765 1073.08 257.509C1074.8 254.081 1075.66 250.225 1075.66 245.94V196.58C1075.66 192.981 1074.8 189.639 1073.08 186.554C1071.2 183.298 1068.71 180.556 1065.63 178.327C1062.54 176.099 1058.95 174.386 1054.83 173.186C1050.55 171.815 1046.09 171.129 1041.46 171.129C1036.77 171.129 1032.47 171.728 1028.58 172.925C1022.82 174.699 1017.94 177.785 1013.95 182.184C1013.94 182.198 1013.93 182.212 1013.92 182.227C1011.22 185.142 1009.07 188.437 1007.46 192.11C1004.39 198.732 1001.92 208.251 1001.92 222.032C1001.92 235.562 1004.32 245.026 1007.31 251.694C1008.93 255.542 1011.13 259.004 1013.9 262.079C1013.92 262.098 1013.94 262.118 1013.95 262.137C1020.44 269.516 1029.81 272.934 1041.46 272.934C1046.09 272.934 1050.55 272.334 1054.83 271.135L1054.83 271.134Z" fill="#254A6A"/>
<path d="M212.953 117.479C216.445 119.807 219.67 122.461 222.628 125.441L209.845 141.269C207.761 138.944 205.455 136.841 202.927 134.96C195.557 129.304 186.302 126.477 175.162 126.477C167.45 126.477 160.508 127.933 154.338 130.847C148.34 133.761 143.264 138.011 138.913 143.444C129.233 155.533 125.617 172.872 125.617 201.03C125.617 230.715 128.719 245.413 138.913 257.846C147.648 268.498 159.566 273.528 175.162 273.528C186.645 273.528 196.243 270.614 203.955 264.787C207.101 262.34 209.905 259.579 212.367 256.505C213.079 264.317 214.92 271.824 218.036 278.764C216.648 279.899 215.21 280.981 213.725 282.012C203.098 289.21 190.244 292.809 175.162 292.809C152.367 292.809 134.629 285.097 121.946 269.672C109.263 254.075 102.922 231.195 102.922 201.03C102.922 170.866 109.263 147.729 121.946 131.618C134.629 115.336 152.367 107.195 175.162 107.195C190.244 107.195 202.841 110.623 212.953 117.479Z" fill="#254A6A"/>
<path d="M910.182 291.645C901.099 291.645 892.872 290.017 885.502 286.76C878.304 283.504 872.048 278.877 866.735 272.878C861.594 266.708 857.566 259.424 854.652 251.026C851.91 242.456 850.539 232.859 850.539 222.233C850.539 211.778 851.91 202.266 854.652 193.696C857.566 185.127 861.594 177.843 866.735 171.844C872.048 165.674 878.304 160.961 885.502 157.705C892.872 154.449 901.099 152.82 910.182 152.82C919.094 152.82 927.064 154.449 934.091 157.705C941.118 160.961 947.117 165.503 952.087 171.33C957.057 176.986 960.828 183.756 963.398 191.64C966.141 199.524 967.512 208.179 967.512 217.605V227.374H872.134V233.544C872.134 239.2 872.991 244.513 874.705 249.483C876.59 254.282 879.161 258.481 882.417 262.08C885.845 265.68 889.958 268.508 894.757 270.564C899.728 272.621 905.298 273.649 911.468 273.649C919.866 273.649 927.15 271.678 933.32 267.736C939.661 263.794 944.546 258.139 947.973 250.769L962.627 261.309C958.342 270.393 951.658 277.762 942.575 283.418C933.491 288.903 922.694 291.645 910.182 291.645ZM910.182 170.045C904.526 170.045 899.385 171.073 894.757 173.13C890.13 175.015 886.102 177.757 882.674 181.356C879.418 184.956 876.847 189.24 874.962 194.211C873.077 199.009 872.134 204.323 872.134 210.15V211.949H945.403V209.121C945.403 197.296 942.146 187.869 935.633 180.842C929.292 173.644 920.808 170.045 910.182 170.045Z" fill="#254A6A"/>
<path d="M797.496 282.447C801.266 286.389 806.751 288.36 813.949 288.36H838.05V269.561H812.663V173.902H839.304V155.906H812.663V125.57H794.153V143.823C794.153 148.279 793.297 151.45 791.583 153.335C790.04 155.049 787.041 155.906 782.585 155.906H771.852V173.902H792.097V173.905H803.661V174.946C799.204 174.946 796.205 175.803 794.663 177.517C793.024 179.32 792.169 182.297 792.097 186.45V266.508C792.097 273.021 793.896 278.334 797.496 282.447Z" fill="#254A6A"/>
<path d="M738.277 288.36C738.277 288.36 738.277 270.564 738.277 266.965H736.992C734.078 275.192 729.279 281.362 722.595 285.475C715.911 289.588 707.941 291.645 698.686 291.645C684.632 291.645 673.664 288.046 665.78 280.847C658.067 273.649 654.211 263.88 654.211 251.54C654.211 239.029 658.753 229.431 667.836 222.747C677.091 216.063 691.402 212.721 710.769 212.721H736.992V199.609C736.992 190.183 734.421 182.985 729.279 178.014C724.137 173.044 716.254 170.559 705.627 170.559C697.572 170.559 690.802 172.359 685.318 175.958C680.005 179.557 675.549 184.356 671.95 190.354L659.61 178.786C663.209 171.587 668.95 165.503 676.834 160.533C684.718 155.391 694.659 152.82 706.656 152.82C722.766 152.82 735.278 156.762 744.19 164.646C753.102 172.53 757.558 183.499 757.558 197.553V270.564V288.36H738.277ZM702.028 274.163C707.17 274.163 711.883 273.563 716.168 272.364C720.453 271.164 724.137 269.45 727.222 267.222C730.307 264.994 732.707 262.423 734.421 259.51C736.135 256.596 736.992 253.425 736.992 249.998V228.146H709.741C697.915 228.146 689.26 229.859 683.775 233.287C678.462 236.715 675.806 241.685 675.806 248.198V253.597C675.806 260.109 678.12 265.165 682.747 268.765C687.546 272.364 693.973 274.163 702.028 274.163Z" fill="#254A6A"/>
<path d="M653.533 155.916V155.906H645.564C634.766 155.906 626.282 158.391 620.112 163.362C613.942 168.332 609.658 173.988 607.258 180.329H605.973V155.906H585.406V288.361H605.973V198.582C605.973 192.241 609.058 187.013 615.228 182.9C620.254 179.504 626.788 177.453 634.83 176.749L642.318 167.111C645.623 162.858 649.388 159.138 653.533 155.916Z" fill="#254A6A"/>
</svg>
